:SAMPLES-PER-SECOND 30
:FULLY-SPECIFIED
:DEGREES
196
root  21.7895 38.9862 -2.42991 -28.9982 -84.8492 23.5508
RightUpLeg  -11.9343 -7.16145 -9.3574
RightLeg  40.4126 0.360199 0.0533699
RightFoot  -7.85655 -0.355895 9.90568
RightToes  -9.31324e-010 0 -3.6325e-017
Spine  7.29497 1.81598 3.25465
Spine1  5.75669 3.35929 -7.22652
HEad  -8.87059 7.52676 -7.23403
LeftShoulder1  -0.742646 5.44538 -32.0863
LeftArm  3.02777 10.0754 -37.4055
LeftForeArm  14.4955 -20.0174 -4.70538
LeftHand  0.0399421 8.46851 3.08232
RightShoulder  -0.878492 -5.87768 30.3926
RightArm  20.0573 -0.940571 45.0009
RightForeArm  12.5225 13.4625 6.89841
RightHand  -0.196231 5.70325 -2.37174
LeftUpLeg  -6.51985 2.78796 -4.49475
LeftLeg  16.8996 -2.87594 -0.489506
LeftFoot  -5.42432 -0.2905 6.25185
LeftToes  8.61288e-010 -5.99147e-011 2.1039e-011
197
root  22.995 38.8762 -2.54141 -34.6864 -84.8133 29.1188
RightUpLeg  -8.72842 -6.08336 -10.1527
RightLeg  45.0518 1.32195 1.10406
RightFoot  -8.09184 -0.319166 9.29281
RightToes  -9.31324e-010 0 -3.6325e-017
Spine  6.76637 2.18497 3.0378
Spine1  5.8317 3.82192 -7.97406
HEad  -6.93805 6.2823 -5.95093
LeftShoulder1  -0.790778 5.54293 -32.6193
LeftArm  -2.73113 12.7586 -35.4216
LeftForeArm  20.3566 -12.7565 -6.84156
LeftHand  0.00292799 9.05954 1.54139
RightShoulder  -0.823022 -5.76875 29.7191
RightArm  19.134 0.363289 45.6269
RightForeArm  8.55963 16.0352 5.77665
RightHand  -0.241351 5.59196 -2.87337
LeftUpLeg  -8.23272 2.76109 -4.97881
LeftLeg  16.4279 -2.52675 -0.511511
LeftFoot  -3.48837 -0.398261 6.09681
LeftToes  8.61288e-010 -5.99147e-011 2.1039e-011
198
root  24.2174 38.6902 -2.6484 -45.3094 -84.7702 39.3333
RightUpLeg  -4.79005 -4.97754 -11.1809
RightLeg  48.0175 1.84927 1.872
RightFoot  -8.1272 -0.310516 9.09113
RightToes  -9.31324e-010 0 -3.6325e-017
Spine  6.13408 2.70186 3.13354
Spine1  6.71326 4.66595 -9.31744
HEad  -6.19998 5.719 -4.81131
LeftShoulder1  -0.775713 5.49877 -32.7259
LeftArm  -6.29534 15.6197 -33.678
LeftForeArm  25.87 -7.35934 -7.23004
LeftHand  -0.0712041 9.20907 -0.563702
RightShoulder  -0.853122 -5.85616 29.6583
RightArm  17.976 2.59894 46.133
RightForeArm  6.57043 17.9666 5.07717
RightHand  -0.278479 6.34489 -3.08013
LeftUpLeg  -9.79337 2.42692 -5.70167
LeftLeg  16.4118 -1.79941 -0.414262
LeftFoot  -1.81976 -0.483849 5.94022
LeftToes  8.61288e-010 -5.99147e-011 2.1039e-011
199
root  25.5035 38.4275 -2.75921 -54.8637 -84.9906 48.4539
RightUpLeg  -0.533192 -3.70576 -11.5456
RightLeg  49.0751 3.03535 3.41146
RightFoot  -8.78655 -0.292437 10.4427
RightToes  -9.31324e-010 0 -3.6325e-017
Spine  6.1257 3.2062 4.20877
Spine1  6.90135 5.64161 -11.1631
HEad  -5.16225 5.05217 -4.51892
LeftShoulder1  -0.722195 5.3459 -33.0405
LeftArm  -5.73972 19.5293 -31.5817
LeftForeArm  29.6156 -5.75216 -7.03832
LeftHand  -0.156051 10.0757 -2.40239
RightShoulder  -0.867261 -5.89979 29.5926
RightArm  16.987 4.80875 46.5602
RightForeArm  5.77574 19.5001 4.72243
RightHand  -0.393945 6.50384 -4.18355
LeftUpLeg  -11.8081 2.82402 -5.9249
LeftLeg  16.9935 -1.36907 -0.489969
LeftFoot  -0.661286 -0.479513 5.17226
LeftToes  8.61288e-010 -5.99147e-011 2.1039e-011
200
root  26.8354 38.1356 -2.87358 -66.1368 -85.2402 59.1836
RightUpLeg  3.92052 -1.78558 -11.3236
RightLeg  48.2822 6.15588 6.99734
RightFoot  -9.19668 -0.298273 12.2608
RightToes  -9.31324e-010 0 -3.6325e-017
Spine  6.02486 3.78336 5.39322
Spine1  7.69854 6.6714 -12.4845
HEad  -4.66205 4.4132 -5.26595
LeftShoulder1  -0.744944 5.4013 -33.0967
LeftArm  -4.94167 23.4023 -30.233
LeftForeArm  34.0793 -6.22162 -7.16356
LeftHand  -0.225775 9.6312 -4.54018
RightShoulder  -0.820756 -5.82198 28.7937
RightArm  15.684 7.17494 47.4798
RightForeArm  6.27971 20.7098 4.5134
RightHand  -0.366607 6.48026 -3.92214
LeftUpLeg  -13.8046 2.66748 -6.08809
LeftLeg  17.6563 -0.228865 -0.0474691
LeftFoot  0.245126 -0.408424 4.00594
LeftToes  8.61288e-010 -5.99147e-011 2.1039e-011
201
root  28.262 37.8138 -3.02401 -76.4069 -85.276 68.931
RightUpLeg  8.19827 0.0352743 -10.604
RightLeg  45.8841 9.94476 10.5167
RightFoot  -9.46769 -0.297053 15.1877
RightToes  -9.31324e-010 0 -3.6325e-017
Spine  6.38415 4.2415 6.40431
Spine1  8.09873 7.50272 -13.6467
HEad  -3.66815 3.61998 -5.90148
LeftShoulder1  -0.751121 5.42743 -32.8805
LeftArm  -4.00247 27.4415 -29.5902
LeftForeArm  37.3209 -7.84714 -7.34015
LeftHand  -0.242478 8.95913 -5.91377
RightShoulder  -0.783805 -5.74049 28.4136
RightArm  15.9856 9.84302 47.8666
RightForeArm  5.53682 21.5235 4.55016
RightHand  -0.399459 6.91968 -4.11689
LeftUpLeg  -15.7932 2.61701 -6.04338
LeftLeg  17.954 0.613405 0.278544
LeftFoot  1.19884 -0.320097 2.85183
LeftToes  8.61288e-010 -5.99147e-011 2.1039e-011
202
root  29.7512 37.5578 -3.1935 -93.03 -85.4626 85.6442
RightUpLeg  11.2551 1.81069 -9.40778
RightLeg  42.1534 11.9282 11.0986
RightFoot  -12.7612 0.104632 16.4724
RightToes  -9.31324e-010 0 -3.6325e-017
Spine  6.67172 4.87472 7.25339
Spine1  7.82442 8.31054 -13.8163
HEad  -3.31881 3.61634 -6.72011
LeftShoulder1  -0.802715 5.54652 -33.1311
LeftArm  -3.30802 30.6149 -29.1293
LeftForeArm  36.6807 -9.12178 -7.14697
LeftHand  -0.324172 9.31292 -7.67059
RightShoulder  -0.77038 -5.73009 27.9709
RightArm  17.6702 12.7156 47.9472
RightForeArm  4.92613 22.382 4.63576
RightHand  -0.462523 6.37376 -4.89115
LeftUpLeg  -17.7917 3.08683 -5.53148
LeftLeg  16.983 1.65842 0.494523
LeftFoot  1.92429 -0.0963755 0.732206
LeftToes  8.61288e-010 -5.99147e-011 2.1039e-011
203
root  31.2998 37.4116 -3.35454 -109.499 -85.7721 102.359
RightUpLeg  13.5353 2.63111 -7.71389
RightLeg  36.4335 11.6058 8.86144
RightFoot  -16.9501 0.401237 10.8991
RightToes  -9.31324e-010 0 -3.6325e-017
Spine  6.99745 4.95877 9.44071
Spine1  7.45099 8.97913 -14.9392
HEad  -3.79492 4.25535 -7.091
LeftShoulder1  -0.791816 5.54184 -32.6917
LeftArm  -3.28286 32.9352 -29.6911
LeftForeArm  34.239 -10.1346 -6.81418
LeftHand  -0.374897 9.8387 -7.96817
RightShoulder  -0.808631 -5.83253 28.1114
RightArm  20.0689 16.0921 48.2543
RightForeArm  5.08801 22.8781 4.68186
RightHand  -0.471331 6.53132 -4.92511
LeftUpLeg  -19.1177 3.28768 -4.33444
LeftLeg  14.4156 3.04201 0.573915
LeftFoot  2.4 0.125443 -1.17117
LeftToes  8.61288e-010 -5.99147e-011 2.1039e-011
204
root  33.0432 37.2434 -3.54942 -126.112 -86.0887 119.369
RightUpLeg  14.2698 2.45783 -5.90822
RightLeg  30.1081 9.6775 5.78767
RightFoot  -23.6883 0.518068 6.19162
RightToes  -9.31324e-010 0 -3.6325e-017
Spine  7.89816 4.63024 11.4984
Spine1  7.03925 9.09835 -15.593
HEad  -4.6935 4.9573 -7.90291
LeftShoulder1  -0.83132 5.64339 -32.6725
LeftArm  -4.66193 33.4152 -31.165
LeftForeArm  33.2345 -10.0489 -6.41313
LeftHand  -0.295119 8.81042 -7.90966
RightShoulder  -0.736687 -5.6472 27.709
RightArm  22.373 19.6972 49.2384
RightForeArm  5.68878 22.7713 4.65235
RightHand  -0.370174 6.62939 -3.91277
LeftUpLeg  -20.5896 3.17342 -2.74237
LeftLeg  11.474 4.31152 0.3962
LeftFoot  1.82861 0.244565 -2.20604
LeftToes  8.61288e-010 -5.99147e-011 2.1039e-011
205
root  34.9158 37.1548 -3.73873 -148.926 -87.3168 141.864
RightUpLeg  13.1721 1.62429 -3.00961
RightLeg  27.3239 6.60847 3.456
RightFoot  -26.175 0.031092 1.53604
RightToes  -9.31324e-010 0 -3.6325e-017
Spine  9.74253 3.59836 14.339
Spine1  7.15378 8.57983 -15.4706
HEad  -6.53083 6.76298 -9.73545
LeftShoulder1  -0.934283 5.86606 -33.3815
LeftArm  -5.94166 31.4127 -32.9308
LeftForeArm  33.0983 -9.60966 -6.24234
LeftHand  -0.320496 8.91998 -8.45291
RightShoulder  -0.655045 -5.44804 27.0062
RightArm  23.5026 23.069 50.2796
RightForeArm  6.1532 22.6798 4.62639
RightHand  -0.350732 6.46027 -3.77
LeftUpLeg  -21.0013 2.93415 -0.593166
LeftLeg  7.95742 5.06322 0.323096
LeftFoot  -0.567801 0.167662 -1.66305
LeftToes  8.61288e-010 -5.99147e-011 2.1039e-011
